PathFileType	4	(x/y/z)	S06_P20_T34
DataRate	CameraRate	NumFrames	NumMarkers	Units	OrigDataRate	OrigDataStartFrame	OrigNumFrames
240	240	8	51	mm	240	222	354
Frame#	Time	Sternum			R.Acromium			L.Acromium			Top.Head			R.ASIS			L.ASIS			R.PSIS			L.PSIS			R.Great.Tro			L.Great.Tro			R.Iliac.Crest			L.Iliac.Crest			V.Sacral			R.Thigh.Upper.Post			R.Thigh.Lower.Ant			R.Thigh.Lower.Post			R.Thigh.Upper.Ant			R.Knee.Lat			R.Knee.Med			R.Shank.Upper.Post			R.Shank.Lower.Ant			R.Shank.Lower.Post			R.Shank.Upper.Ant			R.Ankle.Lat			R.Ankle.Med			R.Heel.Upper			R.Heel.Med			R.Heel.Lat			R.Toe.Lat			R.Toe.Med			R.Toe.Tip			L.Thigh.Upper.Post			L.Thigh.Lower.Ant			L.Thigh.Lower.Post			L.Thigh.Upper.Ant			L.Knee.Lat			L.Knee.Med			L.Shank.Upper.Post			L.Shank.Lower.Ant			L.Shank.Lower.Post			L.Shank.Upper.Ant			L.Ankle.Lat			L.Ankle.Med			L.Heel.Upper			L.Heel.Med			L.Heel.Lat			L.Toe.Lat			L.Toe.Med			L.Toe.Tip			Cervical.Spine			Back			
		X1	Y1	Z1	X2	Y2	Z2	X3	Y3	Z3	X4	Y4	Z4	X5	Y5	Z5	X6	Y6	Z6	X7	Y7	Z7	X8	Y8	Z8	X9	Y9	Z9	X10	Y10	Z10	X11	Y11	Z11	X12	Y12	Z12	X13	Y13	Z13	X14	Y14	Z14	X15	Y15	Z15	X16	Y16	Z16	X17	Y17	Z17	X18	Y18	Z18	X19	Y19	Z19	X20	Y20	Z20	X21	Y21	Z21	X22	Y22	Z22	X23	Y23	Z23	X24	Y24	Z24	X25	Y25	Z25	X26	Y26	Z26	X27	Y27	Z27	X28	Y28	Z28	X29	Y29	Z29	X30	Y30	Z30	X31	Y31	Z31	X32	Y32	Z32	X33	Y33	Z33	X34	Y34	Z34	X35	Y35	Z35	X36	Y36	Z36	X37	Y37	Z37	X38	Y38	Z38	X39	Y39	Z39	X40	Y40	Z40	X41	Y41	Z41	X42	Y42	Z42	X43	Y43	Z43	X44	Y44	Z44	X45	Y45	Z45	X46	Y46	Z46	X47	Y47	Z47	X48	Y48	Z48	X49	Y49	Z49	X50	Y50	Z50	X51	Y51	Z51	

222	0.92083	-114.56	1266.4	333.78	-218.01	1477.4	510.85	-254.45	1476	159.6	-205.56	1795.3	328.84	-174.39	1029.7	467.63	-170.2	1027.4	213.45	NaN	NaN	NaN	-372.08	1059	292.66	-239.99	966.01	516.44	-257.17	960.61	158.76	-250.97	1111.6	496.11	-237.42	1101.5	176.01	-384.8	1024	336.83	-274.59	715.12	495.29	-231.39	629.77	458.83	-298.88	631.74	473.97	-202.52	713.96	478.95	-305.75	517.56	452.94	-299.83	528.31	325.99	-446	331.49	446.12	-424.96	248.63	416.65	-486.32	267.43	428.67	-384.34	312.45	434.79	-525.42	135.3	395.7	-513.29	137.01	308.06	-605.1	113.72	348.46	-603.56	81.059	318.9	-603.42	82.143	383.65	-433.52	37.419	423.89	-406.95	39.133	301.71	-340.12	43.081	348.86	-116.49	723.64	174.25	-46.046	666.17	236.66	-105.41	635.03	194.27	-66.071	756.94	214.27	-86.1	546.51	211.24	-60.567	560.35	331.06	-69.067	317.47	218.19	9.6094	275.5	216.69	-53.952	246.88	234.57	-8.6152	343.64	206.74	35.292	117.88	228.44	41.41	131.2	320.04	-21.234	61.248	275.3	-8.034	39.925	310.12	-4.991	36.437	248.72	165.38	87.698	213.9	174.86	112.21	328.73	238.2	147.14	275.8	-291.79	1530.9	341	-356.02	1260.4	344.66
223	0.925	-108.67	1266.2	333.42	-212.35	1476.9	510.56	-248.84	1475.7	159.28	-199.93	1795	328.69	-168.32	1029.4	467.34	-163.95	1027	213.15	NaN	NaN	NaN	-365.95	1058.5	292.24	-234.01	965.71	516.03	-250.9	960.09	158.54	-244.99	1111.3	495.77	-231.03	1101	175.61	-378.67	1023.5	336.41	-268.25	714.72	495.23	-224.61	629.34	459.38	-292.23	631.21	474.04	-196.05	713.69	479.3	-299.05	517.07	453.35	-292.5	527.51	326.42	-441.43	332.84	446.37	-421.44	249.67	417.08	-482.55	269.34	428.95	-380.05	313	435.27	-523.28	137.44	396.02	-510.75	139.08	308.44	-603	117.38	348.74	-602.04	84.92	319.01	-601.97	85.686	383.78	-433.23	37.548	423.85	-406.6	39.367	301.69	-340.01	42.867	348.82	-110.85	722.8	174.31	-40.266	665.28	236.53	-100.07	634.23	194.66	-59.965	756.05	213.8	-80.818	545.75	211.53	-55.001	559.74	331.15	-65.258	316.66	218.64	13.083	274.1	217.52	-50.756	245.97	235.08	-4.5689	342.37	207.47	37.482	116.69	229.27	43.299	129.67	320.98	-19.719	61.425	275.68	-7.1797	39.628	310.37	-3.9106	36.484	248.99	167.25	85.297	215.26	176.29	109.18	330.17	240.3	143.64	277.74	-286.14	1530.5	340.71	-350.13	1259.9	344.31
224	0.92917	-102.77	1266	333.07	-206.69	1476.5	510.26	-243.22	1475.4	158.95	-194.29	1794.7	328.53	-162.24	1029.1	467.02	-157.69	1026.7	212.83	NaN	NaN	NaN	-359.79	1058.1	291.81	-228	965.44	515.6	-244.62	959.61	158.32	-239	1111	495.42	-224.65	1100.6	175.21	-372.53	1023.1	335.98	-261.73	714.32	495.21	-217.62	628.93	459.98	-285.37	630.68	474.15	-189.41	713.46	479.66	-292.11	516.59	453.82	-284.91	526.69	326.9	-436.63	334.3	446.65	-417.72	250.81	417.59	-478.57	271.37	429.26	-375.55	313.63	435.8	-520.95	139.71	396.41	-508	141.28	308.88	-600.65	121.29	349.08	-600.32	89.06	319.16	-600.33	89.482	383.95	-432.91	37.721	423.83	-406.21	39.657	301.68	-339.91	42.656	348.77	-105.21	722	174.38	-34.531	664.41	236.43	-94.746	633.48	195.05	-53.887	755.17	213.39	-75.585	545.02	211.81	-49.551	559.14	331.25	-61.518	315.89	219.1	16.479	272.74	218.35	-47.637	245.1	235.59	-0.58952	341.14	208.2	39.547	115.55	230.09	45.077	128.16	321.9	-18.359	61.679	276.05	-6.4948	39.404	310.62	-3.0216	36.603	249.24	168.91	82.883	216.54	177.6	106.07	331.55	242.27	140.04	279.59	-280.5	1530.2	340.42	-344.22	1259.5	343.95
225	0.93333	-96.857	1265.8	332.72	-201.05	1476.2	509.96	-237.6	1475.1	158.61	-188.66	1794.5	328.37	-156.17	1028.9	466.68	-151.42	1026.4	212.5	NaN	NaN	NaN	-353.64	1057.7	291.37	-221.95	965.2	515.16	-238.35	959.18	158.09	-233.01	1110.7	495.06	-218.29	1100.3	174.81	-366.39	1022.7	335.54	-255.04	713.94	495.22	-210.4	628.54	460.63	-278.29	630.14	474.29	-182.62	713.28	480.03	-284.9	516.1	454.34	-277.04	525.85	327.43	-431.59	335.85	446.99	-413.76	252.05	418.17	-474.35	273.52	429.62	-370.83	314.35	436.39	-518.39	142.13	396.85	-505	143.62	309.38	-598.02	125.45	349.47	-598.35	93.49	319.35	-598.46	93.54	384.15	-432.55	37.949	423.81	-405.79	40.01	301.67	-339.81	42.446	348.71	-99.573	721.25	174.45	-28.848	663.56	236.37	-89.446	632.77	195.42	-47.849	754.33	213.03	-70.402	544.33	212.08	-44.232	558.55	331.38	-57.829	315.17	219.54	19.818	271.43	219.18	-44.575	244.28	236.08	3.3372	339.96	208.93	41.515	114.46	230.9	46.77	126.69	322.8	-17.121	62.001	276.4	-5.9407	39.254	310.85	-2.2862	36.788	249.46	170.4	80.478	217.74	178.82	102.92	332.85	244.14	136.35	281.35	-274.86	1529.9	340.11	-338.3	1259.1	343.59
226	0.9375	-90.935	1265.7	332.37	-195.42	1475.9	509.65	-231.97	1474.9	158.26	-183.01	1794.4	328.21	-150.1	1028.8	466.31	-145.16	1026.2	212.16	NaN	NaN	NaN	-347.47	1057.4	290.91	-215.87	964.99	514.7	-232.07	958.81	157.84	-227.02	1110.5	494.7	-211.95	1100	174.4	-360.25	1022.4	335.09	-248.17	713.56	495.25	-202.94	628.19	461.31	-270.99	629.59	474.48	-175.65	713.14	480.4	-277.41	515.62	454.92	-268.87	524.98	328.02	-426.28	337.52	447.37	-409.56	253.4	418.81	-469.87	275.8	430.03	-365.87	315.16	437.04	-515.58	144.69	397.35	-501.74	146.1	309.93	-595.09	129.86	349.91	-596.12	98.217	319.58	-596.34	97.869	384.4	-432.14	38.244	423.79	-405.32	40.434	301.68	-339.72	42.234	348.64	-93.944	720.55	174.53	-23.226	662.75	236.35	-84.167	632.1	195.77	-41.861	753.52	212.74	-65.268	543.69	212.33	-39.053	557.98	331.53	-54.178	314.51	219.97	23.114	270.16	219.98	-41.554	243.52	236.56	7.223	338.82	209.64	43.407	113.43	231.68	48.399	125.26	323.68	-15.982	62.38	276.74	-5.4855	39.175	311.08	-1.6726	37.03	249.67	171.74	78.101	218.85	179.97	99.763	334.06	245.93	132.63	283	-269.22	1529.7	339.79	-332.38	1258.8	343.21
227	0.94167	-85.005	1265.7	332.02	-189.79	1475.7	509.34	-226.32	1474.8	157.91	-177.37	1794.3	328.04	-144.04	1028.7	465.93	-138.91	1026.1	211.8	NaN	NaN	NaN	-341.31	1057.1	290.45	-209.76	964.8	514.23	-225.81	958.5	157.57	-221.03	1110.4	494.32	-205.65	1099.8	173.99	-354.13	1022.2	334.63	-241.1	713.19	495.33	-195.24	627.86	462.04	-263.45	629.04	474.72	-168.52	713.06	480.76	-269.63	515.14	455.55	-260.41	524.09	328.66	-420.69	339.29	447.79	-405.1	254.85	419.52	-465.13	278.21	430.49	-360.65	316.06	437.75	-512.51	147.41	397.92	-498.21	148.72	310.55	-591.83	134.55	350.41	-593.6	103.25	319.85	-593.96	102.48	384.68	-431.67	38.62	423.79	-404.79	40.937	301.69	-339.61	42.017	348.55	-88.324	719.91	174.6	-17.667	661.98	236.37	-78.906	631.49	196.09	-35.932	752.76	212.51	-60.178	543.09	212.57	-34.024	557.44	331.7	-50.556	313.91	220.38	26.377	268.97	220.77	-38.562	242.82	237	11.077	337.76	210.34	45.237	112.47	232.44	49.977	123.9	324.52	-14.925	62.805	277.06	-5.1034	39.164	311.29	-1.1541	37.318	249.86	172.96	75.768	219.87	181.07	96.619	335.17	247.64	128.89	284.52	-263.57	1529.5	339.46	-326.45	1258.5	342.83
228	0.94583	-79.068	1265.7	331.69	-184.18	1475.5	509.02	-220.67	1474.6	157.55	-171.72	1794.2	327.86	-138	1028.6	465.53	-132.66	1026	211.43	NaN	NaN	NaN	-335.16	1057	289.97	-203.62	964.64	513.75	-219.57	958.27	157.28	-215.05	1110.3	493.93	-199.38	1099.7	173.58	-348.03	1022	334.15	-233.84	712.82	495.44	-187.3	627.57	462.8	-255.67	628.47	475.01	-161.2	713.02	481.12	-261.56	514.67	456.25	-251.64	523.18	329.35	-414.81	341.16	448.27	-400.36	256.42	420.3	-460.1	280.74	430.99	-355.17	317.05	438.52	-509.16	150.28	398.55	-494.41	151.5	311.23	-588.22	139.5	350.97	-590.77	108.58	320.17	-591.28	107.38	385.01	-431.14	39.092	423.79	-404.19	41.529	301.73	-339.49	41.793	348.46	-82.713	719.33	174.67	-12.172	661.25	236.43	-73.658	630.94	196.38	-30.068	752.06	212.36	-55.128	542.56	212.78	-29.148	556.93	331.88	-46.956	313.39	220.75	29.613	267.84	221.52	-35.595	242.2	237.4	14.904	336.76	211.01	47.012	111.58	233.15	51.512	122.61	325.31	-13.939	63.262	277.35	-4.7742	39.215	311.48	-0.70956	37.642	250.03	174.06	73.493	220.79	182.13	93.519	336.19	249.29	125.15	285.93	-257.93	1529.4	339.13	-320.51	1258.3	342.44
229	0.95	-73.129	1265.8	331.37	-178.58	1475.4	508.7	-215	1474.6	157.19	-166.07	1794.2	327.68	-131.98	1028.6	465.1	-126.44	1026	211.05	NaN	NaN	NaN	-329.02	1056.9	289.49	-197.47	964.5	513.26	-213.35	958.1	156.97	-209.09	1110.2	493.53	-193.16	1099.6	173.17	-341.95	1021.9	333.66	-226.39	712.46	495.59	-179.1	627.31	463.59	-247.65	627.9	475.35	-153.71	713.04	481.47	-253.18	514.21	457	-242.55	522.26	330.1	-408.63	343.14	448.81	-395.34	258.09	421.14	-454.78	283.39	431.54	-349.4	318.13	439.34	-505.5	153.31	399.24	-490.31	154.42	311.96	-584.24	144.72	351.6	-587.6	114.22	320.54	-588.28	112.57	385.39	-430.52	39.675	423.8	-403.52	42.22	301.78	-339.34	41.559	348.36	-77.109	718.84	174.73	-6.7383	660.59	236.53	-68.416	630.45	196.62	-24.272	751.42	212.28	-50.107	542.09	212.96	-24.423	556.46	332.07	-43.378	312.93	221.07	32.824	266.79	222.23	-32.652	241.66	237.75	18.705	335.83	211.64	48.733	110.77	233.83	53.006	121.39	326.05	-13.015	63.738	277.61	-4.4824	39.32	311.66	-0.32197	37.991	250.18	175.06	71.289	221.61	183.16	90.486	337.1	250.88	121.46	287.2	-252.29	1529.3	338.79	-314.58	1258.1	342.05
